<svg width="580" height="150" viewBox="0 0 580 150" fill="none" xmlns="http://www.w3.org/2000/svg">
<path d="M231.024 70.799C233.261 70.8772 235.028 72.7578 234.782 74.9833C233.432 87.2205 227.936 98.6771 219.142 107.409C210.349 116.141 198.854 121.558 186.608 122.822C184.381 123.052 182.513 121.273 182.45 119.035V119.035C182.388 116.796 184.156 114.95 186.379 114.69C196.562 113.502 206.1 108.934 213.429 101.656C220.759 94.3775 225.393 84.8722 226.652 74.6979C226.927 72.4759 228.786 70.7209 231.024 70.799V70.799Z" fill="#F25C05"/>
<rect x="213.486" y="110.845" width="10.8108" height="8.64865" transform="rotate(-45 213.486 110.845)" fill="#F25C05"/>
<circle cx="231.324" cy="121.486" r="13.5135" fill="#F25C05"/>
<path d="M131.085 67.3091C128.847 67.2309 127.081 65.3504 127.326 63.1249C128.676 50.8876 134.172 39.431 142.966 30.6989C151.759 21.9668 163.254 16.5506 175.5 15.286C177.727 15.056 179.595 16.8354 179.658 19.0735V19.0735C179.72 21.3117 177.953 23.1582 175.729 23.4177C165.546 24.6056 156.008 29.1737 148.679 36.4522C141.35 43.7306 136.715 53.2359 135.456 63.4102C135.181 65.6322 133.322 67.3872 131.085 67.3091V67.3091Z" fill="#033E8C"/>
<rect x="144.297" y="39.4939" width="10.8108" height="8.64865" transform="rotate(-45 144.297 39.4939)" fill="#033E8C"/>
<circle cx="162.135" cy="50.1352" r="13.5135" fill="#033E8C"/>
<path d="M179.309 119.024C179.231 121.261 177.35 123.028 175.125 122.782C162.888 121.432 151.431 115.936 142.699 107.142C133.967 98.3491 128.551 86.8545 127.286 74.608C127.056 72.3809 128.835 70.5127 131.074 70.4502V70.4502C133.312 70.3876 135.158 72.1556 135.418 74.3795C136.606 84.5623 141.174 94.0997 148.452 101.429C155.731 108.759 165.236 113.393 175.41 114.652C177.632 114.927 179.387 116.786 179.309 119.024V119.024Z" fill="#033E8C"/>
<rect x="150.413" y="104.73" width="10.8108" height="8.64865" transform="rotate(-135 150.413 104.73)" fill="#033E8C"/>
<circle cx="161.055" cy="86.8919" r="13.5135" transform="rotate(-90 161.055 86.8919)" fill="#033E8C"/>
<path d="M231.024 67.3091C233.261 67.231 235.028 65.3504 234.782 63.1249C233.432 50.8876 227.936 39.431 219.142 30.6989C210.349 21.9668 198.854 16.5506 186.608 15.286C184.381 15.056 182.513 16.8354 182.45 19.0735V19.0735C182.388 21.3117 184.156 23.1582 186.379 23.4177C196.562 24.6056 206.1 29.1737 213.429 36.4522C220.759 43.7306 225.393 53.2359 226.652 63.4102C226.927 65.6322 228.786 67.3872 231.024 67.3091V67.3091Z" fill="#033E8C"/>
<rect x="210.614" y="32.2973" width="10.8108" height="8.64865" transform="rotate(45 210.614 32.2973)" fill="#033E8C"/>
<circle cx="199.973" cy="50.1352" r="13.5135" transform="rotate(90 199.973 50.1352)" fill="#033E8C"/>
<path d="M265.508 105C262.052 105 259.108 103.784 256.676 101.352C254.244 98.92 253.028 95.976 253.028 92.52V35.88H263.396V91.08C263.396 92.488 263.62 93.448 264.068 93.96C264.58 94.408 265.54 94.632 266.948 94.632H308.132C309.604 94.632 310.564 94.408 311.012 93.96C311.46 93.448 311.684 92.488 311.684 91.08V35.88H322.148V92.52C322.148 95.976 320.9 98.92 318.404 101.352C315.972 103.784 313.06 105 309.668 105H265.508ZM332.912 105V48.36C332.912 44.904 334.128 41.96 336.56 39.528C338.992 37.096 341.936 35.88 345.392 35.88H389.456C392.912 35.88 395.856 37.096 398.288 39.528C400.784 41.96 402.032 44.904 402.032 48.36V105H391.568V80.808H343.28V105H332.912ZM343.28 70.44H391.568V49.8C391.568 48.392 391.312 47.464 390.8 47.016C390.352 46.504 389.424 46.248 388.016 46.248H346.832C345.424 46.248 344.464 46.504 343.952 47.016C343.504 47.464 343.28 48.392 343.28 49.8V70.44ZM413.066 105V35.784H423.434V94.632H482.186V105H413.066ZM499.223 105V79.08L467.351 35.88H479.543L504.407 67.272L529.175 35.88H541.463L509.591 79.08V105H499.223Z" fill="#033E8C"/>
</svg>
